#!OML:ASF H:\GeneralSubjects\Female5\Project 1\Capture day 1\Session 1\Female5.ASF
:FULLY-SPECIFIED
:DEGREES
278
root -5.29283 16.2324 2.32207 -167.477 51.2137 -175.24
lowerback 9.45264 4.7779 0.243421
upperback -9.73731 6.76469 -1.72458
thorax -15.9769 3.12675 -3.66982
lowerneck -13.2813 5.8313 12.0631
upperneck 34.8314 8.93899 -2.76922
head 15.0472 5.90961 -1.49523
rclavicle -1.73539e-013 -2.22639e-014
rhumerus -52.8293 24.0378 -85.5519
rradius 36.9401
rwrist -5.76267
rhand -27.4088 -16.1844
rfingers 7.12502
rthumb -0.814903 -46.1626
lclavicle -1.73539e-013 -2.22639e-014
lhumerus -39.9784 -2.48996 62.2477
lradius 30.7926
lwrist -2.84129
lhand -26.6098 31.2083
lfingers 7.12502
lthumb -0.0432308 61.1881
rfemur -22.1954 -9.8865 19.7359
rtibia 37.0779
rfoot -14.4692 -19.6798
rtoes -23.3827
lfemur -9.19265 -10.6047 -27.7742
ltibia 13.0746
lfoot -34.0315 -6.59088
ltoes -28.5876
279
root -5.0855 16.2436 2.35685 -167.784 50.1372 -175.561
lowerback 9.37481 4.55039 -0.169778
upperback -9.65424 6.40449 -1.52878
thorax -15.9141 3.02405 -3.13005
lowerneck -13.3987 5.71311 11.9614
upperneck 34.7839 8.74218 -2.76297
head 15.0243 5.80637 -1.50983
rclavicle 3.90612e-014 1.11319e-014
rhumerus -54.1762 23.5772 -85.4727
rradius 36.8277
rwrist -5.98207
rhand -27.0451 -16.1725
rfingers 7.12502
rthumb -0.463635 -46.1517
lclavicle 3.90612e-014 1.11319e-014
lhumerus -38.3327 -2.59846 62.8437
lradius 31.6803
lwrist -2.42042
lhand -26.7721 31.2568
lfingers 7.12502
lthumb -0.199969 61.2365
rfemur -21.5771 -6.71288 17.4674
rtibia 31.6244
rfoot -15.0187 -20.6616
rtoes -20.9538
lfemur -8.21556 -11.6389 -27.4361
ltibia 12.3445
lfoot -34.4631 -6.46923
ltoes -28.9706
280
root -4.87297 16.2504 2.39255 -168.023 48.9688 -175.893
lowerback 9.24754 4.32289 -0.572163
upperback -9.60226 6.04823 -1.36639
thorax -15.8448 2.92106 -2.63224
lowerneck -13.5557 5.56732 11.8331
upperneck 34.7375 8.50049 -2.74607
head 15.0044 5.68126 -1.52239
rclavicle 1.31496e-013 3.81667e-014
rhumerus -55.5442 23.0015 -85.4026
rradius 36.6266
rwrist -6.02489
rhand -26.7014 -16.1077
rfingers 7.12502
rthumb -0.131701 -46.0874
lclavicle 1.31496e-013 3.81667e-014
lhumerus -36.6423 -2.79458 63.5619
lradius 32.5287
lwrist -1.86588
lhand -27.0777 31.2261
lfingers 7.12502
lthumb -0.495114 61.2053
rfemur -20.7642 -3.08322 15.0662
rtibia 25.8642
rfoot -15.4146 -21.9767
rtoes -18.5106
lfemur -7.38843 -12.6761 -27.0935
ltibia 11.6909
lfoot -34.8244 -6.59168
ltoes -28.8442
281
root -4.65468 16.2522 2.42948 -168.232 47.7009 -176.26
lowerback 9.10289 4.08664 -0.973439
upperback -9.57749 5.68093 -1.24086
thorax -15.7865 2.81067 -2.17497
lowerneck -13.7365 5.4018 11.6909
upperneck 34.6844 8.22989 -2.73335
head 14.9838 5.54083 -1.53901
rclavicle -1.0625e-013 -3.33958e-014
rhumerus -56.9114 22.2912 -85.3219
rradius 36.3605
rwrist -5.92643
rhand -26.3835 -16.0004
rfingers 7.12502
rthumb 0.175389 -45.9801
lclavicle -1.0625e-013 -3.33958e-014
lhumerus -34.9541 -3.07241 64.3867
lradius 33.3416
lwrist -1.19076
lhand -27.4642 31.0973
lfingers 7.12502
lthumb -0.868432 61.0753
rfemur -19.789 1.18475 12.483
rtibia 19.9486
rfoot -15.7662 -23.735
rtoes -15.709
lfemur -6.70343 -13.7268 -26.7547
ltibia 11.1436
lfoot -35.0699 -7.07924
ltoes -28.1687
282
root -4.43131 16.248 2.46735 -168.421 46.3389 -176.669
lowerback 8.94333 3.83621 -1.37336
upperback -9.57438 5.29484 -1.15035
thorax -15.7346 2.6895 -1.75437
lowerneck -13.9292 5.22328 11.5496
upperneck 34.6177 7.94462 -2.74456
head 14.9597 5.39018 -1.56828
rclavicle -2.84262e-014 -1.19271e-014
rhumerus -58.2582 21.4567 -85.207
rradius 36.0687
rwrist -5.74828
rhand -26.0599 -15.8535
rfingers 7.12502
rthumb 0.487927 -45.8327
lclavicle -2.84262e-014 -1.19271e-014
lhumerus -33.3114 -3.39349 65.2958
lradius 34.1314
lwrist -0.457471
lhand -27.8675 30.8736
lfingers 7.12502
lthumb -1.25791 60.8497
rfemur -18.7231 6.35715 9.65646
rtibia 14.0296
rfoot -16.7 -25.9152
rtoes -11.4243
lfemur -6.17264 -14.7694 -26.4282
ltibia 10.7216
lfoot -35.1551 -7.82295
ltoes -27.2239
283
root -4.20207 16.2378 2.50614 -168.588 44.8713 -177.098
lowerback 8.77348 3.55029 -1.77983
upperback -9.58031 4.8617 -1.06545
thorax -15.6799 2.54722 -1.32648
lowerneck -14.1205 5.05148 11.395
upperneck 34.5286 7.67926 -2.78063
head 14.9275 5.24123 -1.60262
rclavicle 3.13583e-014 1.23246e-014
rhumerus -59.5614 20.59 -85.0514
rradius 35.7939
rwrist -5.57765
rhand -25.687 -15.6854
rfingers 7.12502
rthumb 0.848013 -45.6634
lclavicle 3.13583e-014 1.23246e-014
lhumerus -31.7756 -3.72006 66.2753
lradius 34.918
lwrist 0.289786
lhand -28.2659 30.5978
lfingers 7.12502
lthumb -1.64269 60.5713
rfemur -17.6154 12.7609 6.57225
rtibia 8.30036
rfoot -19.5264 -28.3987
rtoes -4.19684
lfemur -5.7744 -15.8343 -26.084
ltibia 10.4325
lfoot -35.1459 -8.4833
ltoes -26.5789
284
root -3.96593 16.2215 2.54604 -168.727 43.2956 -177.517
lowerback 8.60455 3.21101 -2.18517
upperback -9.58549 4.35958 -0.96289
thorax -15.6175 2.37386 -0.86509
lowerneck -14.2969 4.90396 11.2103
upperneck 34.4083 7.46453 -2.83783
head 14.8818 5.10473 -1.63261
rclavicle -2.08227e-014 6.75868e-015
rhumerus -60.7897 19.7807 -84.8785
rradius 35.544
rwrist -5.48429
rhand -25.267 -15.5257
rfingers 7.12502
rthumb 1.25365 -45.5018
lclavicle -2.08227e-014 6.75868e-015
lhumerus -30.3979 -4.00075 67.2984
lradius 35.7104
lwrist 0.980959
lhand -28.6457 30.2707
lfingers 7.12502
lthumb -2.00953 60.2409
rfemur -16.579 20.9476 3.17922
rtibia 3.02915
rfoot -26.4762 -30.4621
rtoes 7.41703
lfemur -5.48052 -16.9568 -25.6873
ltibia 10.2677
lfoot -35.1763 -8.62275
ltoes -26.8406
285
root -3.72139 16.1991 2.58727 -168.849 41.6278 -177.915
lowerback 8.44409 2.82534 -2.58229
upperback -9.58414 3.79701 -0.850287
thorax -15.5415 2.17138 -0.384994
lowerneck -14.4709 4.77368 11.0025
upperneck 34.273 7.28602 -2.9089
head 14.8316 4.97727 -1.65823
rclavicle -9.64106e-015 -1.35174e-014
rhumerus -61.9243 19.0261 -84.7077
rradius 35.3141
rwrist -5.48921
rhand -24.8203 -15.4184
rfingers 7.12502
rthumb 1.68513 -45.3915
lclavicle -9.64106e-015 -1.35174e-014
lhumerus -29.1881 -4.25487 68.3348
lradius 36.5027
lwrist 1.56977
lhand -28.9276 29.8772
lfingers 7.12502
lthumb -2.28176 59.8448
rfemur -15.8859 31.2334 -0.562827
rtibia -1.19511
rfoot -38.5717 -30.2565
rtoes 20.5663
lfemur -5.26369 -18.1767 -25.2279
ltibia 10.2298
lfoot -35.3218 -8.13669
ltoes -28.0771
286
root -3.4668 16.1709 2.62995 -168.96 39.899 -178.283
lowerback 8.29453 2.41592 -2.95828
upperback -9.57607 3.20413 -0.747788
thorax -15.4502 1.95045 0.0768793
lowerneck -14.6548 4.64126 10.7741
upperneck 34.1447 7.10645 -2.96585
head 14.7858 4.84872 -1.67418
rclavicle 7.17613e-014 1.59028e-014
rhumerus -62.9538 18.2848 -84.5485
rradius 35.0918
rwrist -5.60364
rhand -24.3711 -15.3819
rfingers 7.12502
rthumb 2.11893 -45.3511
lclavicle 7.17613e-014 1.59028e-014
lhumerus -28.1429 -4.56535 69.3649
lradius 37.2839
lwrist 2.07814
lhand -29.0652 29.4686
lfingers 7.12502
lthumb -2.41469 59.4347
rfemur -16.011 43.3426 -4.75802
rtibia -3.71061
rfoot -53.5711 -26.0957
rtoes 30.4811
lfemur -5.10726 -19.4925 -24.6934
ltibia 10.3246
lfoot -35.4697 -7.57079
ltoes -29.4049
287
root -3.2009 16.1375 2.67387 -169.057 38.1588 -178.605
lowerback 8.14889 2.00949 -3.29078
upperback -9.56219 2.61901 -0.67405
thorax -15.3397 1.72467 0.478733
lowerneck -14.8431 4.49531 10.5457
upperneck 34.0419 6.90674 -3.00262
head 14.7508 4.71654 -1.68457
rclavicle 4.22417e-014 8.74653e-015
rhumerus -63.8577 17.508 -84.4001
rradius 34.8478
rwrist -5.80576
rhand -23.9407 -15.4041
rfingers 7.12502
rthumb 2.53463 -45.3688
lclavicle 4.22417e-014 8.74653e-015
lhumerus -27.2555 -4.97173 70.3808
lradius 38.0222
lwrist 2.52342
lhand -29.1491 29.1507
lfingers 7.12502
lthumb -2.49575 59.1159
rfemur -17.3341 54.9484 -9.22163
rtibia -4.30472
rfoot -66.2966 -19.5085
rtoes 35.8834
lfemur -4.99309 -20.813 -24.0688
ltibia 10.5083
lfoot -35.4803 -7.25854
ltoes -30.2436
288
root -2.92346 16.1004 2.71866 -169.128 36.4664 -178.85
lowerback 8.00166 1.63197 -3.54506
upperback -9.54535 2.08143 -0.640809
thorax -15.2125 1.50793 0.779169
lowerneck -15.0278 4.33289 10.34
upperneck 33.9788 6.68081 -3.01858
head 14.7321 4.58283 -1.69403
rclavicle -1.78906e-014 -1.23246e-014
rhumerus -64.6258 16.648 -84.2579
rradius 34.5582
rwrist -6.03217
rhand -23.5641 -15.4797
rfingers 7.12502
rthumb 2.89831 -45.4398
lclavicle -1.78906e-014 -1.23246e-014
lhumerus -26.5325 -5.515 71.377
lradius 38.6843
lwrist 2.924
lhand -29.2598 29.0044
lfingers 7.12502
lthumb -2.60261 58.9683
rfemur -18.8765 62.3106 -12.5337
rtibia -3.97753
rfoot -73.0395 -14.1302
rtoes 38.4598
lfemur -4.89338 -22.0486 -23.3307
ltibia 10.7262
lfoot -35.2544 -7.57257
ltoes -29.9784
289
root -2.63453 16.0617 2.76442 -169.166 34.8809 -178.982
lowerback 7.86344 1.30589 -3.67857
upperback -9.52744 1.62701 -0.653686
thorax -15.0819 1.31192 0.940176
lowerneck -15.1879 4.15387 10.1672
upperneck 33.9533 6.42782 -3.00929
head 14.7241 4.45006 -1.70306
rclavicle 2.61402e-014 2.14687e-014
rhumerus -65.2685 15.6913 -84.151
rradius 34.2098
rwrist -6.26736
rhand -23.3186 -15.5781
rfingers 7.12502
rthumb 3.13545 -45.5348
lclavicle 2.61402e-014 2.14687e-014
lhumerus -26.0035 -6.23822 72.3288
lradius 39.2615
lwrist 3.28859
lhand -29.3814 28.9837
lfingers 7.12502
lthumb -2.72003 58.9461
rfemur -17.9698 62.7912 -11.8585
rtibia -4.00481
rfoot -72.5762 -12.4085
rtoes 39.5525
lfemur -4.7599 -23.1212 -22.4492
ltibia 10.9082
lfoot -34.7719 -8.49496
ltoes -28.6061
290
root -2.33493 16.0234 2.81119 -169.187 33.4545 -178.988
lowerback 7.7494 1.026 -3.73687
upperback -9.50277 1.2455 -0.659793
thorax -14.9585 1.14059 1.04902
lowerneck -15.2913 3.98746 10.0088
upperneck 33.9568 6.20998 -2.99853
head 14.721 4.33936 -1.70806
rclavicle -1.72446e-014 -3.18055e-015
rhumerus -65.7954 14.7967 -84.1178
rradius 33.8169
rwrist -6.56539
rhand -23.2368 -15.6673
rfingers 7.12502
rthumb 3.21441 -45.6228
lclavicle -1.72446e-014 -3.18055e-015
lhumerus -25.7231 -6.98657 73.232
lradius 39.7356
lwrist 3.55399
lhand -29.4782 28.961
lfingers 7.12502
lthumb -2.81358 58.9221
rfemur -15.2669 57.1093 -8.03666
rtibia -4.36838
rfoot -66.1161 -14.176
rtoes 39.6224
lfemur -4.51379 -24.0506 -21.428
ltibia 10.9855
lfoot -34.1166 -9.81516
ltoes -26.4293
291
root -2.02639 15.9869 2.85898 -169.21 32.2184 -178.868
lowerback 7.67623 0.795424 -3.71194
upperback -9.468 0.941424 -0.647291
thorax -14.8508 0.995917 1.1142
lowerneck -15.3383 3.84396 9.82241
upperneck 33.989 6.04543 -2.95937
head 14.7211 4.25636 -1.68736
rclavicle 3.78685e-014 -1.86858e-014
rhumerus -66.208 14.0267 -84.1701
rradius 33.3983
rwrist -6.92477
rhand -23.2744 -15.7284
rfingers 7.12502
rthumb 3.17807 -45.6845
lclavicle 3.78685e-014 -1.86858e-014
lhumerus -25.6867 -7.66901 74.0811
lradius 40.0689
lwrist 3.65148
lhand -29.4935 28.8173
lfingers 7.12502
lthumb -2.82835 58.7783
rfemur -13.339 48.393 -4.00102
rtibia -4.12977
rfoot -56.4199 -17.466
rtoes 38.5518
lfemur -4.08435 -24.925 -20.2879
ltibia 10.9194
lfoot -33.4925 -11.163
ltoes -24.136
